<?xml version="1.0" encoding="UTF-8"?>
<svg width="752pt" height="752pt" version="1.1" viewBox="0 0 752 752" xmlns="http://www.w3.org/2000/svg">
 <g>
  <path d="m357.02 399.86c0.91016 0 1.6914-0.64844 1.8594-1.5469 0.16797-0.89453-0.32812-1.7852-1.1758-2.1133l-23.238-8.957-0.003907 0.003906c-0.47266-0.20703-1.0078-0.21094-1.4844-0.011719-0.47656 0.19922-0.85156 0.58594-1.0352 1.0664-0.18359 0.48438-0.16797 1.0195 0.054688 1.4883 0.21875 0.46484 0.61719 0.82422 1.1094 0.98828l23.234 8.9609h-0.003907c0.21875 0.082031 0.44922 0.12109 0.68359 0.12109z"/>
  <path d="m353.57 415.47c0-2.3203-1.3984-4.4141-3.543-5.3008-2.1484-0.89062-4.6172-0.39844-6.2578 1.2422-1.6406 1.6445-2.1328 4.1133-1.2422 6.2578 0.88672 2.1445 2.9805 3.543 5.3008 3.543 1.5234 0.003906 2.9883-0.60156 4.0625-1.6758 1.0781-1.0781 1.6836-2.543 1.6797-4.0664z"/>
  <path d="m398.78 421.21c2.3203 0.003906 4.418-1.3906 5.3125-3.5352 0.89062-2.1445 0.40625-4.6133-1.2344-6.2578s-4.1133-2.1406-6.2578-1.25c-2.1484 0.88672-3.5469 2.9805-3.5469 5.3008 0.003907 3.1641 2.5625 5.7266 5.7266 5.7422z"/>
  <path d="m371 447.83c0.41016 0 0.83984 0 1.2773-0.0625v0.003906c2.0195-0.26562 3.4688-2.082 3.2812-4.1094s-1.9453-3.543-3.9805-3.4336c-1.8125 0.16406-2.2891-0.47266-2.543-0.80469-3.9961-5.2578 1.3594-26.383 6.4375-39.711v0.003906c0.74219-1.9609-0.24219-4.1562-2.2031-4.9023-1.9609-0.74609-4.1562 0.23828-4.9023 2.2031-2.293 6.0156-13.328 36.535-5.3828 46.992 1.8867 2.5078 4.8789 3.9336 8.0156 3.8203z"/>
  <path d="m349.01 465.04c-1.3477 1.6016-1.1445 3.9922 0.45703 5.3398 1.6016 1.3477 3.9922 1.1445 5.3398-0.45703 4.7734-5.4062 11.406-8.8203 18.582-9.5625 7.1719-0.74219 14.363 1.2383 20.148 5.5508 1.7539 1.0625 4.0391 0.53125 5.1484-1.1953 1.1094-1.7266 0.64062-4.0234-1.0586-5.1797-7.3711-5.2031-16.395-7.5156-25.355-6.5-8.9648 1.0156-17.242 5.2852-23.262 12.004z"/>
  <path d="m500.08 389.57-20.695-7.9766c-0.96094-0.32422-2.0078 0.16797-2.3711 1.1133-0.36719 0.94922 0.082031 2.0156 1.0117 2.418l20.691 7.9766c0.21875 0.085938 0.44922 0.12891 0.68359 0.12891 0.91016-0.003906 1.6914-0.65234 1.8594-1.5469 0.16797-0.89844-0.32812-1.7852-1.1797-2.1133z"/>
  <path d="m548.02 381.59-20.691 7.9766c-0.84766 0.32812-1.3438 1.2148-1.1758 2.1133 0.16406 0.89453 0.94922 1.543 1.8594 1.5469 0.23047 0 0.46094-0.042968 0.67578-0.12891l20.695-7.9766c0.94531-0.39453 1.4062-1.4727 1.0352-2.4258-0.36719-0.95703-1.4297-1.4453-2.3984-1.1055z"/>
  <path d="m491.24 401.81c-2.0664 0-3.9297 1.2422-4.7227 3.1523-0.78906 1.9102-0.35156 4.1094 1.1094 5.5703 1.4609 1.4609 3.6602 1.8984 5.5664 1.1055 1.9102-0.78906 3.1562-2.6523 3.1562-4.7188 0.003906-1.3555-0.53516-2.6562-1.4922-3.6172-0.96094-0.95703-2.2617-1.4961-3.6172-1.4922z"/>
  <path d="m536.6 401.81c-2.0664 0-3.9297 1.2422-4.7188 3.1523-0.79297 1.9102-0.35547 4.1094 1.1055 5.5703 1.4609 1.4609 3.6602 1.8984 5.5703 1.1055 1.9102-0.78906 3.1523-2.6523 3.1523-4.7188-0.003907-2.8203-2.2891-5.1055-5.1094-5.1094z"/>
  <path d="m514.66 436.34c-5.8398-0.70312-11.504 2.2773-14.234 7.4883-2.7305 5.207-1.957 11.562 1.9453 15.965 3.9023 4.4023 10.121 5.9297 15.621 3.8438 5.5-2.0859 9.1367-7.3594 9.1328-13.242 0.40625-7.3086-5.1562-13.582-12.465-14.055zm0 20.539c-2.6523 0-4.8867-2.9688-4.8867-6.4844s2.2344-6.4805 4.8867-6.4805c2.6523 0 4.8867 2.9648 4.8867 6.4805 0.003907 3.5156-2.2383 6.4844-4.8867 6.4844z"/>
  <path d="m512.16 432.8c0.25 0 0.50781 0 0.76172-0.023437h0.003907c2.0898-0.12891 3.6797-1.9297 3.5508-4.0234-0.13281-2.0938-1.9336-3.6836-4.0273-3.5508-1.207 0.082031-1.4688-0.25391-1.5781-0.41016-2.1172-3.0469 1.0195-15.316 5.2695-24.863l0.003907-0.003907c0.82031-1.9023-0.039063-4.1172-1.9336-4.9609-1.8945-0.84375-4.1172-0.011719-4.9844 1.875-2.4766 5.5508-10.125 24.277-4.5781 32.27h-0.003906c1.7188 2.4258 4.5469 3.8164 7.5156 3.6914z"/>
  <path d="m241.25 393.23c0.23438 0 0.46484-0.042968 0.67969-0.12891l20.691-7.9766c0.94531-0.39453 1.4023-1.4727 1.0352-2.4258-0.37109-0.95703-1.4297-1.4453-2.3984-1.1055l-20.703 7.9766c-0.85156 0.32812-1.3438 1.2148-1.1797 2.1094 0.16406 0.89453 0.94531 1.5469 1.8555 1.5508z"/>
  <path d="m191.3 385.12 20.691 7.9766c0.21484 0.085938 0.44531 0.12891 0.67578 0.12891 0.91406-0.003906 1.6953-0.65234 1.8594-1.5469 0.16797-0.89844-0.32812-1.7852-1.1758-2.1133l-20.707-7.9766c-0.47266-0.20703-1.0078-0.20703-1.4844-0.007813-0.47656 0.19922-0.85156 0.58203-1.0352 1.0664-0.1875 0.48047-0.16797 1.0156 0.054688 1.4844 0.21875 0.46875 0.61719 0.82422 1.1055 0.98828z"/>
  <path d="m249.43 401.81c-2.0664 0-3.9297 1.2422-4.7227 3.1523-0.78906 1.9102-0.35156 4.1094 1.1094 5.5703 1.4609 1.4609 3.6562 1.8984 5.5664 1.1055 1.9102-0.78906 3.1562-2.6523 3.1562-4.7188 0.003906-1.3555-0.53516-2.6602-1.4922-3.6172-0.96094-0.96094-2.2617-1.4961-3.6172-1.4922z"/>
  <path d="m204.09 401.81c-2.0664 0-3.9258 1.2461-4.7148 3.1562s-0.35156 4.1055 1.1094 5.5664c1.4609 1.4609 3.6602 1.8984 5.5703 1.1055 1.9062-0.78906 3.1523-2.6523 3.1523-4.7188 0-1.3555-0.53516-2.6602-1.4961-3.6172-0.96094-0.96094-2.2617-1.4961-3.6211-1.4922z"/>
  <path d="m229.79 424.8c-0.10937 0.15625-0.35156 0.47266-1.5781 0.41016-2.0938-0.12891-3.8945 1.4609-4.0234 3.5547-0.13281 2.0898 1.457 3.8945 3.5508 4.0234 0.25391 0 0.51172 0.023437 0.76562 0.023437 2.9648 0.12109 5.7891-1.2617 7.5078-3.6797 5.5469-7.9922-2.1016-26.719-4.5781-32.27h-0.003906c-0.86719-1.8828-3.0898-2.7188-4.9844-1.875-1.8945 0.84766-2.7539 3.0586-1.9336 4.9648 4.2578 9.5312 7.3945 21.801 5.2773 24.848z"/>
  <path d="m426.68 469.52c-0.94922-0.33203-1.9922-0.26953-2.8984 0.16797s-1.5977 1.2188-1.9297 2.168c-2.2734 6.5391-11.078 11.625-14.277 13.031-1.918 0.83984-2.793 3.0742-1.9531 4.9883 0.83594 1.918 3.0703 2.793 4.9883 1.9531 0.59375-0.25391 14.562-6.4531 18.398-17.484 0.33203-0.94922 0.27344-1.9883-0.16406-2.8945s-1.2148-1.5977-2.1641-1.9297z"/>
  <path d="m332.71 492.15c1.793-0.003907 3.3398-1.2617 3.707-3.0156 0.36719-1.7539-0.55078-3.5273-2.1914-4.2461-3.1914-1.4219-11.98-6.4492-14.273-13.031-0.30469-0.98438-0.99219-1.8008-1.9102-2.2656-0.91797-0.46094-1.9844-0.53125-2.957-0.19531-0.96875 0.33984-1.7617 1.0586-2.1914 1.9922-0.43359 0.93359-0.46484 2-0.09375 2.957 3.832 11.031 17.809 17.23 18.398 17.484 0.47656 0.21094 0.99219 0.32031 1.5117 0.32031z"/>
  <path d="m578.02 484.53c1.4102 1.2344 3.5117 1.2539 4.9414 0.042969 0.88281-0.74219 21.52-18.469 18.805-38.672-1.3828-10.297-8.4688-19.086-21.074-26.199 3.6836-2.8672 6.1641-7.0039 6.9609-11.602 0.79687-4.5977-0.15234-9.3281-2.6562-13.266 3.2109-27.898-1.3555-49.145-13.699-63.078-8.8867-9.8477-21.367-15.699-34.621-16.234h-0.058594 0.003907c-1.3633-0.23438-2.6992-0.625-3.9688-1.1719-1.1211-0.44141-2.2617-0.81641-3.4258-1.125-20.363-4.8203-48.055-4.1914-64.688 12.059h0.003906c-8.7188 8.0547-14.402 18.863-16.102 30.609-0.78906-2.2656-1.6094-4.4883-2.4805-6.6641-8.1758-20.363-22.523-32.598-45.141-38.453-12.516-3.2344-30.781 1.8945-35.273 3.2344-17.305-3.4102-50.152 1.0078-67.988 37.094-8.8477-43.938-52.023-53.246-52.734-53.379-34.004-4.5898-59.438 1.9883-75.57 19.586-28.953 31.602-16.926 86.863-16.398 89.195 2.5898 11.523-1.4219 31.508-1.8945 33.625-1.3672 4.2305-17.113 54.855 5.8164 78.945h-0.003907c-5.3203 9.582-8.1172 20.355-8.1328 31.316v36.52-0.003906c0 2.0938 1.6953 3.7891 3.7891 3.7891h143.07c0.83203-0.015625 1.6289-0.30859 2.2734-0.83203v15.75c0 2.0938 1.6953 3.7891 3.7891 3.7891h143.62c1.0156 0 1.9883-0.40625 2.6992-1.1289s1.1055-1.6992 1.0898-2.7109l-0.20312-14.867h139.46c1.0039 0 1.9688-0.39844 2.6797-1.1094 0.71094-0.71094 1.1094-1.6758 1.1094-2.6797v-36.539c0.078125-15.535-5.5117-30.566-15.727-42.27-10.211-11.707-24.344-19.281-39.742-21.312v-11.082 0.003907c13.512-5.3008 24.5-15.555 30.715-28.672 1.8047 3.3594 4.5273 6.1406 7.8516 8.0156 3.0195 1.5742 5.2266 4.3594 6.0703 7.6562 0.66797 5.9258-0.69922 11.902-3.8672 16.953-0.99609 1.5742-0.69922 3.6367 0.69922 4.8672zm-0.58984-87.219c0.23438 0.74219 0.69531 1.3945 1.3203 1.8594 0.5625 0.92969 0.98828 1.9375 1.2617 2.9883 1.3789 5.6445-1.7188 11.422-7.1875 13.395v-21.312c1.7656 0.625 3.3477 1.6797 4.6055 3.0703zm-107.59-66.609c14.434-14.098 39.242-14.465 57.645-10.102 0.85938 0.23438 1.707 0.51953 2.5352 0.85156 2.1055 0.95703 4.3672 1.5156 6.6758 1.6484 11.086 0.57813 21.492 5.5156 28.953 13.734 10.02 11.328 14.133 28.656 12.363 51.465h0.003906c-1.6367-0.87109-3.3906-1.4961-5.2109-1.8516v-1.8945c0-0.47266 0-1.0234-0.027344-1.2344l0.027344-24.934v-0.003907c0.003906-1.2617-0.62109-2.4414-1.6641-3.1484-1.0469-0.70703-2.375-0.84766-3.543-0.375l-29.512 11.754-5.9336-8.9375-0.003906 0.003907c-0.64844-0.97656-1.707-1.5938-2.875-1.6797s-2.3086 0.37109-3.0898 1.2383c-6.4492 7.1523-18.918 9.3203-25.227 9.9727v-7.4336h-0.003907c0-1.2266-0.59375-2.375-1.5898-3.0859-1-0.71094-2.2812-0.89844-3.4375-0.49609l-33.477 11.609h-0.003906c-1.2031 0.41797-2.1211 1.4141-2.4336 2.6523-1.1641 4.6094-1.75 9.3438-1.75 14.098v16.176c-0.92188-7.6953-2.1016-14.949-3.5469-21.812 0.23438-0.49609 0.35547-1.043 0.35547-1.5938-0.23828-19.727 0.32422-32.508 14.77-46.621zm-294.99-8.2695c14.355-15.66 37.555-21.438 68.727-17.238 0.47266 0.097657 47.297 10.184 47.965 61.211-4.8281 15.391-7.9023 31.277-9.1641 47.359v-46.316c0-1.043-0.42969-2.0352-1.1836-2.7539-3.8555-3.6367-11.043-9.5195-16.164-8.1445-76.449 20.836-90.195 5.4922-90.211 5.4883h-0.003906c-0.92578-1.3906-2.6523-2.0117-4.2539-1.5234-1.5977 0.48438-2.6914 1.9609-2.6875 3.6328v18.844c-0.039063 0.47266-0.042969 1.0391-0.042969 1.5352v8.3359-0.003906c-3.3516 0.17578-6.5273 1.5469-8.9492 3.8672-2.1094-16.086-4.1602-52.332 15.969-74.293zm112.65 190.43c-10.266-14.441-26.109-23.926-43.688-26.152v-10.176c10.227-3.5664 19.234-9.9492 25.988-18.41 6.7539-8.4648 10.98-18.664 12.188-29.422 0.47266 21.586 5.5898 39.809 14.988 52.43-0.19922 0.46875-0.30469 0.97266-0.30469 1.4805-0.058593 13.297-3.1523 23.445-9.1719 30.25zm-112.04-141.7c10.371 4.4688 35.016 8.0898 91.379-7.2617 2.9648 1.2109 5.668 2.9766 7.9648 5.2109v53.32c-0.023438 10.75-3.5234 21.207-9.9727 29.805-6.4531 8.6016-15.512 14.887-25.824 17.918h-0.058594c-9.7578 2.8242-20.145 2.5938-29.77-0.65234h-0.085938c-9.8242-3.3398-18.355-9.6758-24.395-18.117-6.0391-8.4414-9.2773-18.562-9.2617-28.941v-37.926c0-0.30859 0-0.63281 0.03125-1.2422zm36.281 119v-12.023c0.11328 0.027344 0.23047 0.039063 0.34766 0.0625 1.7188 0.40234 3.457 0.71484 5.2109 0.94531 0.37109 0.050781 0.73828 0.09375 1.1094 0.13672 1.6719 0.19922 3.3594 0.32031 5.0547 0.37109 0.25 0 0.49609 0.027344 0.75 0.03125 0.25 0.003906 0.60547 0.039063 0.91406 0.039063 1.6367 0 3.2617-0.09375 4.8828-0.23047l0.47266-0.050781c1.7891-0.16406 3.5664-0.42188 5.3242-0.75391 0.14062-0.027343 0.28906-0.03125 0.42969-0.0625v13.184h-0.007812c0.066406 3.2891-1.1953 6.4688-3.5 8.8164-2.3047 2.3516-5.457 3.6758-8.75 3.6758-3.2891 0-6.4414-1.3242-8.7461-3.6758-2.3047-2.3477-3.5664-5.5273-3.5-8.8164zm-46.91-88.594v10.699c-1.7266-1.2344-2.7539-3.2266-2.7539-5.3477 0-2.125 1.0273-4.1172 2.7539-5.3516zm-6.5898 40.73c0.042969-0.12891 0.078125-0.25781 0.10547-0.39063 1.5703-7.5859 2.5352-15.285 2.8828-23.023 1.2344 0.79297 2.5898 1.3867 4.0117 1.7617h0.066406c0.83984 0.17578 1.6953 0.27734 2.5508 0.30078v1.4766c-0.011718 11.504 3.4492 22.742 9.9258 32.246 6.4766 9.5039 15.672 16.832 26.379 21.027v11.078c-17.289 2.2539-32.883 11.543-43.094 25.672-18.395-21.992-2.9961-69.676-2.8281-70.148zm133.47 140.81h-25.969v-23.078c0-2.0938-1.6992-3.7891-3.7891-3.7891-2.0938 0-3.7891 1.6953-3.7891 3.7891v23.078h-73.629v-23.078c0-2.0938-1.6953-3.7891-3.7891-3.7891-2.0898 0-3.7891 1.6953-3.7891 3.7891v23.078h-20.727v-32.73c0.003906-10.57 2.9375-20.934 8.4766-29.938 8.6758-14.152 23.188-23.723 39.609-26.125 0.039062 0.27344 0.13281 0.53125 0.17969 0.80078 0.089844 0.55078 0.21875 1.0781 0.35547 1.6133 0.17578 0.6875 0.38672 1.3672 0.62891 2.0352 0.19531 0.51172 0.40234 1.0039 0.63281 1.4961h0.003906c0.30078 0.625 0.63281 1.2383 0.99219 1.832 0.28516 0.47266 0.5625 0.91016 0.88281 1.3438 0.41406 0.5625 0.85547 1.1016 1.3242 1.6172 0.35547 0.38672 0.69922 0.78125 1.0859 1.1445 0.52344 0.48047 1.0703 0.93359 1.6406 1.3555 0.41016 0.3125 0.80469 0.64062 1.2344 0.91797 0.63281 0.39063 1.2852 0.74609 1.957 1.0664 0.44141 0.21875 0.85547 0.47266 1.3164 0.65234 0.77344 0.29688 1.5625 0.54297 2.3672 0.73828 0.41016 0.10938 0.79688 0.26562 1.2109 0.35156 2.5391 0.51562 5.1562 0.51562 7.6914 0 0.42188-0.085937 0.80469-0.24219 1.2109-0.35156h0.003906c0.80078-0.19531 1.5938-0.44141 2.3672-0.73828 0.47266-0.1875 0.87109-0.4375 1.3125-0.65234 0.67188-0.32031 1.3242-0.67578 1.9531-1.0664 0.4375-0.28516 0.82812-0.60547 1.2344-0.91797h0.003907c0.57031-0.42578 1.1211-0.87891 1.6406-1.3594 0.38281-0.36328 0.72266-0.75391 1.0781-1.1445l0.003906-0.003907c0.47266-0.51172 0.91406-1.0508 1.3281-1.6133 0.3125-0.4375 0.59766-0.88281 0.875-1.3398h0.003906c0.36328-0.59375 0.69531-1.207 0.99219-1.8398 0.23047-0.47266 0.44531-0.98828 0.63281-1.5h0.003906c0.24609-0.66016 0.45703-1.3359 0.62891-2.0234 0.13672-0.53906 0.26562-1.0742 0.35937-1.625 0.042969-0.27344 0.14063-0.53125 0.17578-0.80859 13.363 1.8984 25.586 8.5586 34.426 18.758 8.8359 10.199 13.688 23.25 13.656 36.746zm7.5391-34.48c-0.17578-10.184-2.7969-20.176-7.6367-29.137 7.7305-8.3789 12.137-19.297 12.383-30.695 3.3047 2.9414 7.0391 5.3633 11.066 7.1914 0.49219 0.22656 1.0234 0.33984 1.5586 0.33984 1.7891 0.007813 3.3398-1.2383 3.7188-2.9883 0.375-1.75-0.52344-3.5234-2.1562-4.2578-28.852-13.047-36.938-63.965-19.219-121.07 17.457-56.281 63.973-46.828 65.941-46.41h0.003906c0.66406 0.14844 1.3555 0.11328 2-0.097657 0.19922-0.0625 20.09-6.4844 32.004-3.4102 20.363 5.2773 32.707 15.742 40.008 33.941h0.003907c6.4492 16.875 10.562 34.551 12.223 52.539 1.6055 13.035 1.5273 26.227-0.23828 39.246-2.207 15.055-8.4492 34.617-25.648 42.523-0.94531 0.39844-1.6875 1.1602-2.0586 2.1172-0.37109 0.95703-0.33984 2.0234 0.089844 2.9531 0.42578 0.93359 1.2148 1.6523 2.1836 1.9922 0.96484 0.33984 2.0312 0.27344 2.9492-0.18359 20.277-9.3281 27.492-31.414 29.973-48.305 0.53125-3.5898 0.87109-7.2852 1.1133-11.039 4.0898 19.789 18.273 35.973 37.355 42.621v10.23c-13.102 1.5781-25.375 7.2344-35.082 16.176-9.707 8.9414-16.355 20.707-19 33.637-8.957-20.305-27.863-34.465-49.867-37.344v-11.082c10.547-4.1406 19.629-11.328 26.082-20.645 6.4531-9.3164 9.9922-20.344 10.164-31.676 0.23828-0.046875 0.47266-0.066406 0.71094-0.125h0.058593-0.003906c5.3203-1.3086 9.8047-4.8633 12.301-9.7383s2.75-10.594 0.70312-15.672c-2.0469-5.082-6.1992-9.0195-11.379-10.805 1.668-0.050782 3.3477-0.074219 4.9727-0.22656 1.0156-0.074219 1.9531-0.55469 2.6094-1.332 0.65625-0.77344 0.97266-1.7812 0.87891-2.793s-0.58594-1.9453-1.375-2.5859c-0.78516-0.64453-1.7969-0.94141-2.8086-0.83203-3.418 0.30859-6.8516 0.38672-10.277 0.23828-3.9922-0.20313-7.9648-0.71875-11.875-1.5352 0.64453-0.625 0.76172-1.6172 0.28125-2.375-0.48047-0.76172-1.4258-1.0781-2.2656-0.76172l-4.1914 1.6133c-0.57422-0.16406-1.1445-0.29688-1.7148-0.47266-26.695-8.4336-46.066-29.508-55.234-41.32-3.3867-4.3789-5.2109-7.3203-5.2109-7.3516v0.003907c-1.0977-1.7812-3.4336-2.3359-5.2148-1.2383-1.7812 1.1016-2.332 3.4336-1.2344 5.2148 0.058593 0.09375 1.1133 1.7891 3.0742 4.5078-17 10.344-27.352 28.82-27.293 48.719v1.8945c-0.25 0.050781-0.51172 0.074219-0.76172 0.14062-5.6016 1.375-10.266 5.2344-12.66 10.48-2.3984 5.2422-2.2656 11.297 0.35938 16.43 2.6211 5.1367 7.4492 8.7891 13.105 9.918 0.22266 11.734 4.0312 23.121 10.918 32.625 6.8906 9.5078 16.523 16.672 27.609 20.539v10.23-0.003906c-13.039 1.5703-25.258 7.1797-34.945 16.047-9.6836 8.8672-16.348 20.547-19.055 33.398zm210.7-69.211c0.30469 0.03125 0.60547 0.074219 0.91016 0.097656 1.5664 0.12891 3.1367 0.21484 4.7344 0.21484 0.25391 0 0.50781-0.027344 0.76172-0.03125 0.44922 0 0.89062-0.039063 1.3398-0.050781 1.4609-0.050782 2.9141-0.15625 4.3633-0.32031 0.53516-0.0625 1.0703-0.125 1.6055-0.19922 1.5078-0.21484 2.9961-0.48828 4.4766-0.82031 0.28125-0.066406 0.57422-0.089844 0.85156-0.15625v13.684-0.003906c0 6.7695-5.4844 12.254-12.254 12.254-6.7695 0-12.258-5.4844-12.258-12.254v-13.191c0.23828 0.046875 0.47266 0.058594 0.71875 0.10547 1.5547 0.28906 3.1406 0.51562 4.7461 0.67188zm-187.69-47.008v-35.48c-0.066406-17.547 9.1992-33.805 24.328-42.691 13.238 16.832 30.406 30.168 49.996 38.832l-8.1211 3.1289h-0.003907c-0.84766 0.33203-1.3438 1.2188-1.1758 2.1133 0.16797 0.89844 0.94922 1.5469 1.8594 1.5469 0.23438 0.003907 0.46484-0.039062 0.68359-0.12109l12.117-4.6758c0.53125 0.17969 1.043 0.37891 1.5781 0.55078 5.8906 1.8477 11.961 3.0664 18.109 3.6289v35.613c0.011718 13.645-5.5938 26.695-15.5 36.082-9.9023 9.3906-23.234 14.289-36.859 13.547-3.7891-0.19531-7.5391-0.82812-11.18-1.8945-10.324-3.0234-19.391-9.3086-25.848-17.91-6.4609-8.6016-9.9609-19.062-9.9844-29.82zm106.95-25.766c4.5078 1.6094 7.5156 5.8789 7.5156 10.664 0 4.7891-3.0078 9.0586-7.5156 10.668zm-68.383 95.934v-11.5c0.24219 0.046875 0.47266 0.058594 0.72266 0.10547 1.5781 0.28906 3.1562 0.51562 4.7344 0.67188 0.32031 0.027344 0.64062 0.074219 0.94531 0.097656 1.5586 0.12891 3.1211 0.21484 4.6914 0.21484 0.25391 0 0.50391-0.027344 0.75781-0.03125 0.47266 0 0.90625-0.039063 1.3594-0.050781 1.457-0.054688 2.9102-0.16016 4.3555-0.32031 0.53125-0.0625 1.0547-0.125 1.5859-0.19531 1.5234-0.21875 3.0312-0.47266 4.5273-0.83203 0.26953-0.058594 0.54297-0.085938 0.81641-0.14844l0.007812 13.652c0.066406 3.293-1.1992 6.4727-3.5039 8.8281-2.3047 2.3516-5.4609 3.6758-8.7539 3.6758-3.293 0-6.4492-1.3242-8.7539-3.6758-2.3086-2.3555-3.5703-5.5352-3.5039-8.8281zm-46.145-74.609c-4.5039-1.6094-7.5117-5.875-7.5117-10.656s3.0078-9.0469 7.5117-10.656zm106.36 173.85v-22.883c0-2.0938-1.6953-3.7891-3.7891-3.7891-2.0898 0-3.7852 1.6953-3.7852 3.7891v22.883h-82.344v-22.883c0-2.0938-1.6953-3.7891-3.7891-3.7891-2.0898 0-3.7891 1.6953-3.7891 3.7891v22.883h-18.188v-39.625c-0.10156-13.504 4.7227-26.586 13.566-36.789 8.8438-10.207 21.105-16.844 34.488-18.664 0.039063 0.27344 0.13281 0.53125 0.17969 0.80469 0.09375 0.55469 0.21875 1.0898 0.35938 1.6289 0.17188 0.68359 0.37891 1.3594 0.625 2.0195 0.19531 0.51563 0.40234 1.0117 0.64062 1.5117h-0.003907c0.30078 0.62109 0.62891 1.2305 0.99219 1.8203 0.28125 0.47266 0.5625 0.91406 0.88672 1.3555 0.41016 0.55859 0.85156 1.0898 1.3203 1.6016 0.35547 0.39844 0.69922 0.78906 1.0898 1.1562 0.51953 0.48047 1.0625 0.92969 1.6328 1.3516 0.41016 0.3125 0.80469 0.64062 1.2422 0.92187v0.003907c0.62891 0.39062 1.2773 0.74219 1.9492 1.0586 0.44141 0.21875 0.86328 0.47266 1.3203 0.65234v0.003906c0.77344 0.29688 1.5664 0.54297 2.3672 0.74219 0.41016 0.10938 0.80078 0.26562 1.2188 0.35156 2.5391 0.51563 5.1562 0.51563 7.6953 0 0.41797-0.085937 0.80469-0.24219 1.2109-0.35156h0.003906c0.80078-0.19531 1.5938-0.44141 2.3672-0.73828 0.47266-0.1875 0.875-0.4375 1.3164-0.65234 0.67188-0.32031 1.3242-0.67578 1.9531-1.0664 0.42969-0.28125 0.82422-0.60547 1.2344-0.91797h0.003906c0.57031-0.42578 1.1172-0.875 1.6367-1.3555 0.38281-0.36328 0.73047-0.75781 1.0859-1.1445v-0.003906c0.46875-0.51562 0.91016-1.0547 1.3242-1.6133 0.31641-0.4375 0.60156-0.88281 0.88281-1.3398 0.35937-0.59766 0.69141-1.2031 0.99609-1.832 0.23047-0.47266 0.44531-0.98828 0.63281-1.5078 0.24609-0.66016 0.45703-1.332 0.62891-2.0156 0.13672-0.53906 0.26562-1.0742 0.35938-1.6289 0.046875-0.26562 0.14062-0.51562 0.17578-0.78516v-0.003907c13.422 1.9766 25.676 8.7305 34.512 19.02 8.832 10.293 13.652 23.43 13.57 36.992v0.050781l0.53125 38.984zm163.41-51.449v32.742h-17.109v-23.078c0-2.0938-1.6953-3.7891-3.7891-3.7891s-3.7891 1.6953-3.7891 3.7891v23.078h-88.246v-23.078c0-2.0938-1.6953-3.7891-3.7891-3.7891s-3.7891 1.6953-3.7891 3.7891v23.078h-14.961v-33.309c-0.10547-13.508 4.7148-26.594 13.562-36.805s21.109-16.848 34.496-18.668c0.03125 0.27344 0.12891 0.53125 0.17578 0.80469 0.09375 0.55469 0.22266 1.0898 0.35938 1.6289 0.17578 0.67969 0.38281 1.3555 0.625 2.0156 0.19531 0.51562 0.40625 1.0117 0.64062 1.5117 0.29688 0.625 0.62891 1.2344 0.98828 1.8242 0.28516 0.47266 0.56641 0.91406 0.88672 1.3555v-0.003906c0.41406 0.55859 0.85156 1.0938 1.3203 1.6016 0.35547 0.39844 0.69922 0.78906 1.0898 1.1562 0.52344 0.47656 1.0664 0.92969 1.6367 1.3516 0.41016 0.31641 0.80469 0.64453 1.2422 0.94531h-0.003906c0.63281 0.38672 1.2852 0.74219 1.9531 1.0625 0.44531 0.21875 0.86328 0.47266 1.3203 0.65234 0.77344 0.29688 1.5625 0.54297 2.3672 0.74219 0.41016 0.10938 0.80078 0.26562 1.2188 0.34766 2.5391 0.52344 5.1562 0.52344 7.6953 0 0.41797-0.082031 0.80469-0.23828 1.2188-0.34766h-0.003906c0.80469-0.19531 1.5977-0.44531 2.3711-0.73828 0.47266-0.1875 0.875-0.4375 1.3203-0.66016v0.003907c0.66797-0.32031 1.3203-0.67188 1.9492-1.0625 0.4375-0.28516 0.82812-0.60547 1.2422-0.92188 0.56641-0.42187 1.1133-0.875 1.6328-1.3516 0.38281-0.36328 0.73438-0.75781 1.0898-1.1562 0.46875-0.50781 0.91016-1.043 1.3203-1.5977 0.31641-0.4375 0.60156-0.89062 0.88672-1.3555 0.36328-0.58984 0.69141-1.1953 0.98828-1.8203 0.23047-0.49609 0.44531-1 0.64062-1.5156 0.24609-0.65625 0.45313-1.3281 0.625-2.0117 0.13672-0.53516 0.26953-1.0742 0.36328-1.6289 0.042968-0.26562 0.13672-0.51562 0.17188-0.78516 13.414 1.9727 25.668 8.7266 34.5 19.012 8.8359 10.289 13.656 23.418 13.582 36.98zm-52.918-80.852c-8.3945 2.8398-17.395 3.3867-26.074 1.5898h-0.0625c-0.68359-0.14062-1.3438-0.33203-2.0117-0.50391-0.55469-0.14062-1.1172-0.26172-1.668-0.42188v0.003906c-10.32-3.0273-19.387-9.3086-25.848-17.914-6.457-8.6016-9.957-19.062-9.9844-29.82v-37.926c0-3.4531 0.35938-6.8984 1.0664-10.277l26.473-9.1797v6.1562c0 1.0156 0.41016 1.9883 1.1328 2.7031 0.72266 0.71094 1.7031 1.1016 2.7188 1.0859 0.86328 0 19.355-0.41797 31.062-9.5l5.1875 7.8086h-0.003907c0.99609 1.4961 2.8984 2.0859 4.5625 1.4219l27.168-10.82v19.625 0.94531 37.922c0.019531 10.391-3.2227 20.531-9.2734 28.98-6.0508 8.4492-14.598 14.789-24.445 18.121zm47.434-21.012c-9.8203-5.7773-6.4141-17.59-3.9961-23.301 11.684 6.1016 18.172 13.379 19.293 21.68 0.5 6.6758-1.3164 13.316-5.1367 18.812-0.011719-1.5977-0.20312-3.1836-0.57422-4.7383-1.2969-5.3164-4.7773-9.8398-9.5859-12.453z"/>
  <path d="m228.41 440.98c-6.6758-0.13672-13.168 2.1953-18.23 6.5508-0.79297 0.64844-1.2891 1.5859-1.375 2.6055-0.089844 1.0195 0.23828 2.0312 0.90625 2.8008 0.67188 0.77344 1.6211 1.2461 2.6445 1.3047 1.0195 0.0625 2.0195-0.29297 2.7773-0.98047 3.4648-2.9609 7.8516-4.6367 12.41-4.7344 2.625 0.36719 4.957 1.8633 6.3789 4.0977 0.71484 0.98438 1.8555 1.5625 3.0703 1.5586 0.80078 0.003906 1.5781-0.25 2.2266-0.72266 0.8125-0.59375 1.3555-1.4805 1.5117-2.4766 0.15625-0.99219-0.085937-2.0078-0.67969-2.8203-2.6523-3.9688-6.8984-6.5938-11.641-7.1836z"/>
  <path d="m272.51 282.18v18.996c-0.003907 1.4258 0.79688 2.7305 2.0664 3.3789 1.2734 0.64453 2.7969 0.52344 3.9492-0.31641l22.73-16.574h60.012l11.09 19.023c0.66406 1.1523 1.8828 1.8711 3.2109 1.8945h0.0625c1.3008 0 2.5117-0.67188 3.207-1.7773l11.996-19.129 61.711 0.003907c11.172-0.003907 22.191-2.5859 32.203-7.5352l19.75 15.941c1.2422 1 2.9844 1.1133 4.3477 0.28125 1.3633-0.83594 2.0586-2.4336 1.7344-4l-5.625-27.113c13.168-13.766 20.391-32.156 20.109-51.203-0.28516-19.047-8.0469-37.215-21.617-50.586-13.57-13.367-31.855-20.859-50.902-20.859h-152.49c-22.574-0.011719-43.867 10.492-57.594 28.414-13.727 17.918-18.324 41.211-12.43 63.004 5.8906 21.789 21.598 39.594 42.484 48.156zm27.535-132h152.5c17.273-0.007813 33.84 6.8711 46.035 19.109 12.191 12.238 19.004 28.832 18.93 46.109-0.074218 17.273-7.0273 33.809-19.324 45.945-0.91016 0.90234-1.3047 2.2031-1.043 3.4609l3.8867 18.727-13.426-10.84c-1.1914-0.96094-2.8398-1.1133-4.1836-0.38281-9.4844 5.1094-20.09 7.7891-30.867 7.7891h-63.816c-1.3047 0-2.5156 0.67188-3.2109 1.7773l-9.7734 15.594-9.0352-15.492c-0.67578-1.168-1.9219-1.8906-3.2734-1.8945h-63.395c-0.80078 0-1.582 0.25391-2.2305 0.72656l-17.73 12.91v-12.152c0.14453-0.26562 0.25781-0.54687 0.33594-0.83984 0.50781-1.8984-0.51953-3.8672-2.3672-4.5352-19.336-6.9531-34.242-22.648-40.184-42.32-5.9453-19.668-2.2227-40.992 10.031-57.488 12.258-16.496 31.598-26.215 52.145-26.203z"/>
  <path d="m282.95 188.11h181.86c2.0898 0 3.7891-1.6953 3.7891-3.7891s-1.6992-3.7891-3.7891-3.7891h-181.86c-2.0938 0-3.7891 1.6953-3.7891 3.7891s1.6953 3.7891 3.7891 3.7891z"/>
  <path d="m282.95 213.33h162.32c2.0898 0 3.7891-1.6953 3.7891-3.7891s-1.6992-3.7891-3.7891-3.7891h-162.32c-2.0938 0-3.7891 1.6953-3.7891 3.7891s1.6953 3.7891 3.7891 3.7891z"/>
  <path d="m282.95 248.85h162.32c2.0898 0 3.7891-1.6992 3.7891-3.7891 0-2.0938-1.6992-3.7891-3.7891-3.7891h-162.32c-2.0938 0-3.7891 1.6953-3.7891 3.7891 0 2.0898 1.6953 3.7891 3.7891 3.7891z"/>
  <path d="m573.15 320.88c0.54297 0.003906 1.082-0.11719 1.5781-0.34375 4.6875-1.6641 8.2656-5.5117 9.5859-10.309 0.65234-4.582-0.73438-9.2188-3.7891-12.688-1.4023-1.4883-3.7305-1.5977-5.2656-0.25-1.5352 1.3516-1.7188 3.6758-0.41797 5.2539 1.457 1.6914 2.1914 3.8828 2.0508 6.1094-0.39844 1.8945-2.1914 3.5508-5.3359 4.9961h-0.003907c-1.6172 0.74219-2.5 2.5156-2.1172 4.2539 0.38281 1.7422 1.9219 2.9805 3.707 2.9766z"/>
  <path d="m603.14 308.97c-2.2148 0.39844-4.5-0.10156-6.3398-1.3945-1.5703-2.0195-2.1328-4.6445-1.5273-7.1289 0.13672-1.0117-0.14063-2.0352-0.76953-2.8398s-1.5586-1.3203-2.5703-1.4297c-1.0156-0.11328-2.0352 0.19141-2.8242 0.83984-0.78516 0.64844-1.2812 1.5898-1.3633 2.6094-0.98438 4.875 0.48047 9.9258 3.918 13.52 2.75 2.3711 6.2891 3.625 9.918 3.5078 0.97266 0.007812 1.9453-0.070312 2.9062-0.23047 2.0195-0.41406 3.3359-2.3633 2.9727-4.3867-0.36719-2.0273-2.2852-3.3906-4.3203-3.0664z"/>
  <path d="m576.51 323.91c-1.2422 1.6875-0.87891 4.0625 0.80859 5.3008s4.0586 0.87891 5.3008-0.80859c1.332-1.793 3.3203-2.9844 5.5273-3.3164 1.8945 0 3.9219 1.4219 5.9961 4.1445h-0.003906c0.59766 0.82813 1.5 1.3789 2.5078 1.5352 1.0078 0.15234 2.0352-0.10547 2.8477-0.71875 0.81641-0.61328 1.3477-1.5273 1.4805-2.5391 0.13281-1.0117-0.15234-2.0352-0.78125-2.832-2.6172-4.1914-7.0977-6.8594-12.031-7.1523h-0.070312c-4.6055 0.33984-8.8359 2.6719-11.582 6.3867z"/>
  <path d="m159.65 278.52c2.2266-0.12891 4.4141 0.64453 6.0703 2.1445 1.3281 2.1953 1.5703 4.8828 0.65234 7.2773-0.23047 0.98047-0.066406 2.0078 0.46094 2.8633 0.52734 0.85547 1.375 1.4688 2.3516 1.6992 2.0391 0.48047 4.0781-0.77734 4.5625-2.8125 1.5742-4.7148 0.74609-9.9023-2.2188-13.895-3.1992-3.3359-7.6953-5.1055-12.312-4.8477-2.0898 0.125-3.6875 1.918-3.5664 4.0117 0.12109 2.0898 1.9141 3.6875 4.0078 3.5664z"/>
  <path d="m176.49 271.95c0.625 0.007813 1.25-0.039062 1.8711-0.13281 4.5039-1.0312 8.3359-3.9844 10.48-8.082 0.97266-1.8516 0.26172-4.1445-1.5898-5.1172-1.8516-0.97656-4.1445-0.26172-5.1172 1.5898-1.0391 1.9922-2.8438 3.4844-4.9961 4.1328-2.5586-0.003907-4.9727-1.1758-6.5547-3.1875-1.5156-1.3047-3.7812-1.2031-5.1797 0.22656s-1.4453 3.6953-0.10547 5.1836c2.8672 3.207 6.8945 5.1484 11.191 5.3867z"/>
  <path d="m177.52 290.36c0.45703 1.6367 1.9453 2.7695 3.6445 2.7695 0.34766 0 0.69531-0.046874 1.0273-0.14062 0.96875-0.27344 1.7891-0.91797 2.2812-1.793 0.49219-0.87891 0.61719-1.9141 0.34375-2.8828-0.58203-2.1523-0.28906-4.4453 0.80859-6.3867 1.8594-1.7695 4.4336-2.5781 6.9727-2.1875 2.0742-0.011719 3.7734-1.6523 3.8594-3.7227 0.015625-1.0039-0.36328-1.9766-1.0625-2.6992-0.69922-0.72266-1.6562-1.1406-2.6602-1.1562-4.9414-0.51172-9.8281 1.4023-13.109 5.1328-2.5781 3.8398-3.3477 8.6133-2.1055 13.066z"/>
  <path d="m461.89 220.89c-2.0938 0.12109-3.6914 1.9141-3.5664 4.0078 0.12109 2.0938 1.9141 3.6914 4.0078 3.5664 2.2305-0.11719 4.4141 0.65625 6.0742 2.1484 1.3242 2.1953 1.5664 4.8789 0.64844 7.2773-0.23047 0.97656-0.0625 2.0078 0.46484 2.8633 0.52734 0.85547 1.3711 1.4648 2.3516 1.6992 2.0352 0.48047 4.0742-0.77734 4.5586-2.8164 1.5742-4.7148 0.74609-9.9023-2.2148-13.895-3.207-3.3359-7.707-5.1055-12.324-4.8516z"/>
  <path d="m467.98 216.5c2.8711 3.207 6.8945 5.1406 11.191 5.3867 0.63281 0 1.2656-0.050781 1.8945-0.15234 4.5039-1.0352 8.3359-3.9883 10.48-8.0859 0.97266-1.8516 0.26172-4.1406-1.5898-5.1172-1.8516-0.97266-4.1445-0.26172-5.1172 1.5898-0.84375 2.3477-2.9844 3.9883-5.4688 4.1914-2.4883 0.20703-4.8672-1.0625-6.082-3.2461-1.5-1.457-3.8984-1.4258-5.3594 0.074219-1.4609 1.5-1.4297 3.8984 0.070312 5.3594z"/>
  <path d="m480.19 240.3c0.45703 1.6367 1.9492 2.7695 3.6484 2.7734 0.34375-0.003906 0.69141-0.050781 1.0234-0.14453 0.96875-0.26953 1.7891-0.91406 2.2812-1.7891s0.61719-1.9102 0.34766-2.8789c-0.58594-2.1523-0.30078-4.4492 0.79297-6.3945 1.8477-1.7969 4.4375-2.6094 6.9766-2.1875 2.0938 0.039062 3.8203-1.6289 3.8594-3.7188 0.035156-2.0938-1.6289-3.8203-3.7227-3.8594-4.9414-0.51172-9.8242 1.3984-13.105 5.1289-2.5781 3.8438-3.3438 8.6172-2.1016 13.07z"/>
 </g>
</svg>
