<svg id="Layer_1" data-name="Layer 1" xmlns="http://www.w3.org/2000/svg" viewBox="0 0 344.42 53.6"><defs><style>.cls-1{fill:none;stroke:#ee1c4e;stroke-linecap:round;stroke-linejoin:round;stroke-width:4px;}.cls-2{font-size:44.06px;fill:#ee1c4e;font-family:Comfortaa;font-weight:700;}.cls-3{letter-spacing:5.53px;}.cls-4{letter-spacing:3.32px;}</style></defs><title>Untitled-1</title><path class="cls-1" d="M131.52,166.47s-1.66-6.33-11.14-6.41c-7.58-.07-9.17,6.77-9.22,8.44-0.22,7.42,7.85,11.64,7.85,11.64s-11.49,3.33-7.05,13.58c2.67,6.17,16.25,9.81,21.16-3.29,1.32-3.52-1-15.16,11.34-15.16,7.4,0,10.74,9.89,10.74,9.89s2.37-11.85,13.51-9.89c8.37,1.48,8.68,11.31,6.25,16.65S159.6,209.15,156,209.64s-15.77-9.6-17.57-14.93" transform="translate(-108.93 -158.06)"/><text class="cls-2" transform="translate(79.82 40.98) scale(0.9 1)"><tspan class="cls-3">eHeart</tspan><tspan x="183.69" y="0"> </tspan><tspan class="cls-4" x="195.49" y="0">L</tspan><tspan class="cls-3" x="225.51" y="0">ab</tspan></text></svg>